<?xml version="1.0" standalone="no"?>
<!DOCTYPE svg PUBLIC "-//W3C//DTD SVG 20010904//EN"
 "http://www.w3.org/TR/2001/REC-SVG-20010904/DTD/svg10.dtd">
<svg version="1.0" xmlns="http://www.w3.org/2000/svg"
 width="1512.000000pt" height="1512.000000pt" viewBox="0 0 1512.000000 1512.000000"
 preserveAspectRatio="xMidYMid meet">
<metadata>
Created by potrace 1.14, written by Peter Selinger 2001-2017
</metadata>
<g transform="translate(0.000000,1512.000000) scale(0.100000,-0.100000)"
fill="#000000" stroke="none">
<path d="M4995 11769 c-29 -14 -49 -63 -36 -87 11 -20 9 -638 -2 -649 -4 -3
-2 -13 3 -23 5 -10 7 -20 3 -23 -8 -9 -7 -102 1 -116 4 -6 4 -11 -1 -11 -4 0
-9 -87 -9 -193 -1 -105 -4 -257 -7 -337 -4 -80 -3 -150 1 -156 4 -6 16 -14 27
-17 22 -7 51 25 62 66 3 12 7 141 9 287 2 146 5 286 7 313 1 26 -1 47 -6 47
-5 0 -6 8 -2 18 4 9 9 69 12 132 5 131 5 123 0 170 -2 19 1 38 7 42 8 5 8 12
0 25 -6 10 -9 29 -7 43 3 14 6 95 8 180 4 156 11 246 20 261 7 10 -35 39 -55
38 -8 0 -24 -5 -35 -10z"/>
<path d="M6505 11557 c-25 -13 -45 -39 -39 -49 3 -5 1 -8 -5 -8 -6 0 -7 -11
-2 -27 5 -16 7 -35 5 -43 -2 -8 -6 -28 -9 -45 -3 -16 -8 -38 -11 -47 -7 -23
-15 -59 -19 -83 -1 -11 -8 -40 -15 -65 -11 -39 -25 -99 -47 -200 -7 -36 -9
-43 -16 -60 -7 -16 -17 -60 -23 -100 -4 -29 -12 -64 -14 -67 -2 -2 -4 -7 -5
-13 -1 -5 -3 -11 -5 -12 -2 -3 -5 -18 -13 -53 -22 -106 -32 -145 -37 -145 -4
0 -7 -6 -8 -12 -1 -16 -6 -41 -23 -98 -26 -92 -21 -108 32 -106 23 1 39 10 57
34 13 17 20 32 14 32 -8 0 -9 8 -3 23 5 13 12 37 15 53 3 16 10 47 16 69 11
42 17 70 24 108 2 13 11 52 20 87 9 36 19 81 22 100 3 19 9 40 12 45 4 6 19
64 35 130 31 133 35 149 37 153 2 1 4 11 5 22 1 11 3 21 5 23 1 1 3 9 5 17 18
88 50 203 66 239 27 63 23 88 -19 96 -12 2 -26 6 -30 9 -4 2 -16 -1 -27 -7z"/>
<path d="M7904 11178 c-3 -5 -9 -6 -14 -3 -13 8 -32 -23 -37 -62 -5 -37 -55
-155 -110 -258 -15 -27 -26 -52 -26 -55 1 -5 -19 -51 -63 -146 -13 -28 -24
-53 -24 -56 0 -3 -8 -23 -17 -44 -9 -22 -17 -41 -18 -44 0 -3 -4 -11 -8 -17
-5 -7 -5 -13 -1 -13 4 0 -1 -9 -10 -19 -10 -11 -19 -25 -20 -33 -3 -15 -5 -19
-63 -158 -24 -58 -50 -117 -58 -131 -8 -14 -12 -29 -8 -33 3 -3 0 -6 -7 -6 -7
0 -10 -3 -7 -6 4 -4 -2 -23 -13 -43 -10 -20 -31 -65 -46 -101 -14 -36 -42 -99
-61 -140 -68 -146 -68 -144 -37 -161 19 -10 29 -10 47 0 24 13 71 107 61 122
-3 5 -1 9 4 9 5 0 15 15 22 33 7 17 21 52 33 77 11 25 20 51 20 58 0 6 4 12 9
12 4 0 8 4 8 9 0 5 14 40 32 78 17 37 32 73 32 78 2 11 40 98 61 135 7 14 23
55 36 90 12 36 27 72 34 80 12 14 26 50 31 78 1 8 10 22 18 31 9 10 16 21 16
25 0 3 7 23 17 44 9 20 17 39 18 42 6 16 19 51 37 95 21 51 29 70 92 209 20
43 36 83 36 89 0 6 12 26 26 45 26 33 26 36 11 66 -14 31 -42 43 -53 24z"/>
<path d="M8970 10165 c-6 -7 -13 -21 -14 -29 -1 -8 -9 -23 -17 -33 -30 -37
-79 -112 -79 -121 0 -5 -7 -12 -15 -16 -8 -3 -15 -11 -15 -19 0 -7 -8 -22 -18
-33 -9 -10 -37 -50 -62 -89 -24 -38 -47 -72 -50 -75 -3 -3 -34 -49 -69 -102
-35 -54 -72 -108 -83 -120 -11 -13 -27 -35 -36 -50 -9 -16 -20 -28 -24 -28 -4
0 -8 -5 -8 -10 0 -6 -23 -39 -50 -73 -64 -79 -60 -73 -100 -132 -18 -27 -49
-67 -68 -88 l-34 -39 23 -24 c13 -14 30 -22 43 -19 12 2 27 4 34 4 7 1 22 21
34 46 12 25 26 45 30 45 4 0 8 6 8 13 0 7 8 22 18 33 9 10 32 42 49 69 18 28
37 55 43 62 5 7 10 16 10 22 0 5 7 12 16 15 9 4 14 9 11 12 -3 3 4 16 16 28
12 12 31 39 42 59 11 20 23 37 27 37 5 0 8 5 8 11 0 6 6 16 13 24 21 23 47 55
47 60 0 5 120 178 129 185 12 10 51 70 51 79 0 5 4 11 8 13 5 2 38 46 75 98
36 52 71 101 77 108 22 25 19 51 -7 72 -30 24 -46 25 -63 5z"/>
<path d="M6081 9701 c-1 -8 -8 -11 -21 -8 -10 3 -24 -1 -30 -8 -6 -7 -22 -16
-35 -19 -13 -3 -37 -11 -52 -18 -15 -6 -32 -12 -38 -13 -24 -6 -109 -36 -133
-49 -15 -7 -33 -11 -39 -9 -7 3 -13 0 -13 -7 0 -6 -4 -8 -10 -5 -5 3 -23 -1
-40 -10 -16 -8 -30 -12 -30 -9 0 4 -9 -1 -19 -10 -11 -10 -24 -15 -30 -12 -6
4 -18 2 -28 -4 -25 -14 -75 -33 -93 -36 -8 -1 -33 -8 -55 -17 -69 -26 -80 -30
-95 -32 -29 -4 -45 -10 -51 -19 -4 -5 -17 -10 -30 -12 -13 -1 -47 -12 -75 -23
-29 -11 -54 -17 -58 -14 -3 4 -6 1 -6 -6 0 -7 -4 -10 -8 -7 -5 3 -21 -2 -36
-10 -16 -7 -35 -14 -42 -14 -8 0 -14 -4 -14 -8 0 -4 -8 -8 -17 -9 -10 -1 -31
-7 -48 -14 -16 -7 -34 -11 -39 -10 -4 1 -13 -2 -20 -7 -17 -14 -104 -41 -110
-34 -3 3 -6 0 -6 -7 0 -7 -6 -11 -13 -8 -7 3 -21 -1 -31 -9 -11 -7 -23 -11
-27 -8 -5 3 -20 -2 -33 -11 -14 -9 -30 -14 -36 -10 -5 3 -10 1 -10 -5 0 -7 -7
-10 -15 -6 -8 3 -15 1 -15 -4 0 -5 -16 -12 -35 -16 -19 -3 -38 -10 -40 -15 -3
-4 -12 -6 -19 -3 -8 3 -17 1 -21 -5 -3 -6 -15 -11 -26 -11 -10 0 -28 -4 -39
-10 -11 -5 -29 -15 -40 -20 -12 -6 -25 -8 -30 -5 -4 3 -14 0 -22 -7 -7 -7 -20
-14 -28 -15 -20 -3 -107 -32 -145 -48 -17 -8 -42 -16 -56 -18 -13 -3 -42 -12
-62 -21 -21 -8 -41 -15 -45 -14 -4 1 -18 -4 -30 -11 -13 -7 -26 -10 -29 -7 -4
3 -12 1 -18 -4 -18 -15 -75 -19 -75 -6 -1 6 -8 -2 -16 -17 -17 -31 -21 -97 -8
-119 11 -17 14 -35 15 -78 1 -19 5 -40 9 -45 5 -6 12 -26 15 -45 3 -19 8 -47
11 -62 3 -16 7 -52 8 -82 2 -29 6 -58 9 -63 7 -11 19 -71 19 -93 0 -8 4 -33
10 -54 5 -22 12 -65 14 -95 2 -31 7 -69 10 -86 9 -40 13 -67 24 -155 5 -41 11
-85 14 -96 6 -30 17 -94 20 -124 2 -14 6 -43 10 -65 4 -22 8 -56 11 -75 2 -19
5 -35 6 -35 1 0 3 -9 5 -20 1 -11 5 -29 7 -41 5 -18 10 -60 22 -172 2 -18 6
-41 9 -50 8 -27 20 -114 21 -149 0 -18 3 -33 6 -33 3 0 6 -21 8 -47 1 -26 6
-52 11 -59 6 -6 7 -13 4 -16 -4 -5 3 -60 22 -158 3 -14 7 -45 9 -70 3 -25 9
-67 14 -95 6 -27 13 -66 15 -85 3 -19 8 -46 11 -60 3 -14 7 -47 10 -73 3 -27
7 -52 9 -56 3 -4 7 -28 10 -54 3 -26 8 -57 11 -69 3 -13 7 -39 10 -58 2 -19 7
-46 10 -60 3 -14 7 -47 10 -75 3 -27 7 -66 9 -85 9 -68 18 -125 22 -150 2 -14
8 -54 14 -90 19 -134 21 -145 27 -165 3 -11 7 -31 9 -45 1 -14 5 -43 9 -65 31
-194 47 -292 51 -309 3 -12 7 -46 10 -75 2 -30 7 -57 9 -59 2 -3 0 -14 -6 -25
-7 -11 -7 -17 -1 -13 11 7 19 -18 18 -56 -1 -16 1 -28 4 -28 3 0 5 -10 6 -22
2 -42 17 -149 29 -208 3 -14 7 -41 10 -60 3 -19 7 -46 10 -60 3 -14 7 -43 10
-65 2 -22 6 -51 9 -65 3 -14 7 -41 10 -60 12 -87 18 -127 22 -150 3 -14 7 -38
10 -55 2 -16 7 -41 10 -55 3 -14 8 -43 10 -65 3 -22 7 -51 10 -65 3 -14 7 -61
10 -105 3 -44 7 -86 9 -93 6 -16 111 -11 145 8 24 13 43 18 83 22 9 1 17 5 17
8 0 3 8 6 18 7 27 1 95 13 112 20 8 3 26 7 40 8 14 2 40 8 59 14 19 6 38 8 42
5 5 -3 9 -2 9 3 0 4 10 8 23 9 25 1 87 13 96 18 3 2 24 7 45 10 60 10 90 18
104 29 8 6 12 5 12 -4 0 -10 3 -10 12 -1 7 7 24 12 38 12 15 0 48 6 73 14 34
10 47 11 50 2 3 -7 11 -3 21 9 8 11 16 17 16 14 0 -4 17 -3 37 2 26 5 40 4 45
-4 5 -8 8 -5 8 7 0 11 3 17 6 13 3 -3 17 -2 29 3 19 7 25 5 28 -8 4 -16 5 -16
6 1 0 9 8 17 16 17 8 0 15 6 15 13 0 8 4 7 10 -3 5 -8 10 -10 10 -5 0 6 14 11
31 12 17 1 37 8 45 14 8 6 14 8 14 5 0 -4 7 -3 17 2 9 6 29 6 45 1 16 -4 26
-4 23 1 -8 13 22 19 35 7 10 -9 11 -9 6 1 -4 6 -4 13 1 13 4 1 18 3 30 4 12 1
30 5 40 9 10 4 33 10 52 12 36 5 146 30 146 34 0 4 74 13 103 13 17 0 32 4 32
8 0 7 45 18 103 25 16 2 33 6 38 10 11 6 54 15 84 18 11 0 22 4 25 7 5 8 71
21 108 23 12 1 22 3 22 6 0 3 8 6 18 7 9 0 28 4 42 8 14 3 30 7 35 8 6 2 16 6
23 10 7 5 12 3 12 -4 0 -10 3 -10 12 -1 7 7 24 12 39 12 15 0 31 5 34 10 4 6
10 8 15 5 5 -3 20 -1 34 5 19 7 26 6 26 -3 0 -9 2 -9 8 1 5 7 28 15 53 18 24
3 46 8 49 12 8 10 34 8 42 -3 5 -6 8 -3 8 6 0 11 8 17 23 17 36 0 100 12 131
24 16 7 41 12 55 13 15 1 32 5 39 9 7 4 16 5 21 1 5 -3 13 0 16 6 4 5 13 8 21
5 8 -3 14 -2 14 2 0 4 10 8 23 9 28 2 92 11 92 13 0 1 14 4 30 6 17 2 39 9 50
14 23 10 93 25 113 23 6 0 12 2 12 6 0 4 9 7 20 8 11 1 20 -4 20 -10 0 -7 4
-6 10 3 5 8 20 15 32 16 13 0 32 3 43 7 11 4 38 9 60 13 22 3 47 10 56 15 9 4
35 10 58 11 22 2 41 6 41 11 0 15 19 6 23 -10 4 -14 5 -14 6 3 1 16 7 21 24
20 12 -1 27 0 32 3 6 3 12 6 15 6 18 2 99 22 103 25 1 1 11 3 22 5 100 14 123
18 142 26 15 5 23 5 23 -2 0 -6 7 -3 16 5 19 19 34 21 34 4 1 -9 4 -8 13 2 16
19 36 23 52 10 9 -8 14 -5 19 12 5 19 8 20 16 8 7 -11 10 -11 10 -2 0 7 4 11
9 7 5 -3 12 -1 16 4 3 6 12 8 20 4 9 -3 15 1 15 8 0 8 6 5 15 -7 14 -18 14
-18 15 0 0 12 5 16 15 12 8 -3 15 -1 15 5 0 6 4 8 9 4 5 -3 12 -1 16 4 3 6 12
8 20 5 7 -3 23 -1 34 6 14 7 21 7 21 0 0 -6 11 -3 25 6 14 9 25 14 25 11 0 -3
14 -2 30 3 21 6 30 5 30 -3 0 -8 3 -7 9 1 4 8 26 16 47 18 22 3 50 8 64 11 39
10 44 10 57 1 8 -7 10 -3 5 14 -5 19 -3 21 10 11 11 -10 17 -10 26 -1 7 7 12
9 12 6 0 -4 14 -3 30 2 19 5 28 5 25 -1 -4 -5 -1 -9 4 -9 6 0 11 4 11 9 0 20
100 37 100 18 0 -7 5 -4 11 6 10 18 11 18 25 0 8 -10 13 -12 12 -5 -4 17 39
35 48 21 4 -7 10 -6 19 1 10 8 19 8 33 1 17 -9 20 -8 18 7 -2 9 3 27 11 39 10
15 11 27 5 40 -9 18 -8 50 2 60 3 3 0 15 -6 27 -7 11 -13 48 -15 81 -1 33 -5
96 -8 140 -8 114 -14 227 -19 323 -2 45 -6 85 -9 88 -3 3 -1 19 3 35 5 16 6
29 2 29 -4 0 -8 53 -9 118 -4 208 -11 487 -13 487 0 0 -2 56 -3 125 -2 69 -6
131 -11 138 -4 7 -2 12 4 12 6 0 8 5 4 12 -11 18 -11 101 -1 116 5 6 6 12 1
12 -8 0 -16 151 -14 253 1 52 -9 207 -14 215 -3 6 -1 12 4 14 13 4 20 39 11
53 -3 6 -6 16 -7 23 -4 22 -37 54 -71 68 -18 8 -35 13 -36 12 -2 -2 -24 14
-48 34 -24 21 -51 44 -61 52 -9 8 -19 12 -22 9 -3 -3 -37 18 -76 46 -39 28
-87 59 -108 69 -20 9 -39 20 -42 23 -3 3 -88 63 -190 134 -102 71 -186 133
-188 137 -2 4 -10 8 -18 8 -8 0 -14 5 -14 10 0 6 -5 10 -11 10 -6 0 -28 13
-48 29 -96 75 -299 210 -305 204 -3 -4 -6 -1 -6 5 0 5 -17 21 -37 33 -21 13
-45 31 -56 42 -10 10 -22 15 -27 12 -4 -3 -10 -2 -12 3 -1 4 -25 22 -53 39
-27 18 -64 46 -82 63 -18 16 -37 30 -44 30 -14 0 -109 69 -109 80 0 4 -11 11
-25 14 -14 4 -25 11 -25 16 0 6 -5 10 -11 10 -7 0 -20 10 -30 22 -11 11 -19
18 -19 14 0 -4 -6 -2 -12 4 -21 17 -88 60 -95 60 -3 0 -13 8 -22 18 -9 9 -28
23 -43 31 -15 8 -37 22 -47 33 -11 10 -22 18 -25 18 -3 0 -75 50 -161 110 -86
61 -160 110 -163 110 -4 0 -14 9 -22 20 -8 11 -20 20 -27 20 -7 0 -13 5 -13
10 0 6 -5 10 -11 10 -6 0 -28 14 -49 30 -21 17 -41 30 -45 30 -4 0 -28 17 -54
38 -25 21 -59 44 -76 52 -16 8 -40 26 -53 39 -12 13 -25 21 -29 18 -3 -4 -12
2 -20 13 -8 11 -18 20 -24 20 -5 0 -17 8 -27 18 -10 9 -27 23 -38 30 -10 7
-40 27 -65 45 -26 18 -82 56 -125 86 -44 30 -81 57 -84 60 -11 13 -60 41 -60
34 0 -4 -7 3 -16 15 -8 12 -20 22 -25 22 -9 0 -21 8 -54 38 -7 6 -18 12 -24
12 -6 0 -11 5 -11 10 0 6 -5 10 -10 10 -14 0 -144 86 -160 105 -7 8 -18 15
-25 15 -8 0 -16 6 -18 13 -4 9 -6 8 -6 -2z m182 -225 c53 -37 97 -72 97 -78 0
-6 3 -9 6 -5 6 6 196 -121 202 -135 2 -4 8 -8 14 -8 9 0 28 -14 85 -60 7 -6
16 -10 20 -10 5 0 20 -11 35 -25 15 -14 29 -25 32 -25 9 0 191 -132 194 -141
2 -5 10 -9 17 -9 7 0 33 -15 57 -33 24 -18 66 -48 93 -67 28 -19 56 -40 63
-47 7 -7 19 -13 26 -13 8 0 30 -16 51 -35 21 -19 42 -32 47 -29 4 3 11 -2 14
-10 3 -9 11 -16 18 -16 12 0 34 -16 88 -62 17 -16 38 -28 45 -28 8 0 16 -7 20
-16 3 -8 12 -13 20 -10 7 3 16 -1 19 -9 4 -8 10 -15 14 -15 12 0 164 -110 168
-121 5 -13 -16 -11 -24 3 -5 8 -10 5 -15 -9 -4 -11 -16 -23 -27 -25 -15 -4
-19 -1 -16 16 3 13 0 11 -7 -6 -8 -20 -20 -29 -47 -34 -20 -4 -39 -10 -42 -14
-3 -5 -21 -10 -40 -12 -19 -1 -40 -10 -47 -18 -7 -8 -13 -11 -13 -6 0 5 -6 3
-14 -3 -7 -6 -25 -12 -40 -13 -14 -1 -26 -6 -26 -11 0 -4 -4 -6 -9 -2 -5 3
-12 1 -15 -3 -3 -5 -27 -15 -53 -22 -27 -7 -56 -20 -65 -28 -10 -8 -18 -12
-18 -7 0 4 -7 2 -15 -5 -8 -7 -15 -9 -15 -5 0 4 -11 0 -25 -9 -14 -9 -30 -14
-35 -11 -5 3 -12 0 -15 -6 -4 -5 -13 -8 -21 -5 -8 3 -14 1 -14 -4 0 -4 -15
-12 -32 -16 -18 -3 -43 -13 -55 -21 -12 -8 -26 -12 -31 -9 -6 3 -15 -1 -22 -9
-7 -8 -16 -12 -21 -9 -5 3 -9 1 -9 -3 0 -5 -11 -10 -25 -11 -14 -1 -38 -8 -53
-16 -15 -7 -33 -11 -39 -9 -7 3 -13 1 -13 -5 0 -5 -19 -15 -42 -22 -24 -8 -45
-14 -48 -15 -3 -1 -20 -6 -38 -10 -18 -4 -35 -12 -38 -16 -3 -5 -15 -9 -28 -9
-12 0 -26 -4 -32 -9 -5 -5 -34 -16 -64 -26 -30 -10 -61 -22 -67 -28 -7 -5 -13
-7 -13 -3 0 3 -25 -5 -55 -19 -30 -13 -55 -22 -55 -19 0 2 -13 -2 -30 -11 -16
-8 -33 -16 -37 -16 -5 -1 -18 -5 -31 -10 -13 -5 -34 -12 -47 -15 -14 -3 -25
-10 -25 -16 0 -5 -4 -7 -8 -4 -12 7 -82 -15 -82 -27 0 -5 -7 -7 -15 -3 -9 3
-33 -4 -55 -15 -22 -11 -44 -18 -50 -14 -5 3 -10 1 -10 -5 0 -7 -6 -10 -12 -7
-7 2 -32 -4 -55 -14 -25 -11 -45 -14 -48 -9 -4 6 -12 10 -18 10 -7 0 -6 -4 3
-10 8 -5 12 -10 8 -11 -15 -3 -28 -7 -30 -9 -2 -1 -13 -3 -25 -4 -18 -2 -20 0
-12 16 5 10 7 18 3 18 -3 0 -1 6 5 13 6 8 8 16 6 19 -3 3 -1 16 4 30 5 14 11
38 14 54 3 16 13 56 23 89 9 33 19 67 20 75 1 8 5 26 9 40 3 14 8 36 11 49 3
13 9 32 15 43 5 10 7 18 4 18 -4 0 -3 6 2 13 4 6 8 21 9 33 0 12 4 30 9 40 8
19 11 35 19 84 2 14 7 34 10 45 23 85 28 102 29 120 1 11 6 23 10 26 4 3 10
19 12 35 5 37 10 56 27 124 8 30 14 63 12 73 -1 9 1 17 6 17 4 0 10 15 13 33
3 17 8 43 12 57 4 14 8 35 9 47 2 12 7 28 13 35 6 7 9 23 8 36 -1 12 2 22 7
22 4 0 8 13 8 28 0 16 3 32 7 36 7 6 12 32 15 74 1 12 6 22 11 22 4 0 7 8 6
18 -2 9 3 27 9 40 7 12 10 27 7 32 -3 6 -3 16 2 23 4 6 8 19 8 27 1 8 9 33 18
54 10 22 15 47 12 57 -3 10 0 23 8 30 8 8 12 22 9 33 -8 30 22 17 131 -58z
m-268 23 c-1 -27 -5 -34 -20 -34 -21 -1 -22 -24 -3 -36 6 -4 7 -12 2 -20 -5
-8 -9 -21 -9 -29 0 -8 -3 -19 -7 -25 -3 -5 -8 -33 -11 -60 -3 -28 -11 -63 -16
-78 -6 -15 -10 -31 -9 -35 1 -4 -5 -29 -15 -57 -9 -27 -18 -66 -20 -85 -2 -20
-6 -40 -10 -46 -3 -6 -8 -21 -11 -35 -11 -54 -15 -69 -19 -77 -3 -4 -8 -25
-11 -47 -4 -22 -11 -53 -16 -70 -5 -16 -19 -69 -30 -116 -30 -124 -31 -131
-36 -162 -2 -16 -7 -34 -11 -40 -4 -7 -6 -20 -5 -29 2 -10 -1 -18 -5 -18 -5 0
-10 -10 -11 -22 -3 -44 -14 -88 -22 -88 -5 0 -7 -11 -5 -25 1 -14 -1 -25 -4
-25 -4 0 -7 -10 -8 -22 -1 -34 -21 -125 -32 -143 -3 -5 -6 -18 -7 -27 -1 -10
-2 -19 -4 -20 -1 -2 -3 -12 -5 -23 -2 -11 -11 -49 -20 -85 -21 -85 -24 -99
-31 -137 -4 -18 -11 -33 -16 -33 -15 0 -270 177 -276 193 -2 4 -12 7 -22 7
-10 0 -26 10 -34 22 -9 12 -16 19 -16 15 0 -4 -12 4 -27 18 -15 14 -33 25 -40
25 -7 0 -16 7 -21 16 -5 8 -15 16 -23 17 -8 2 -26 12 -39 24 -12 12 -27 20
-31 17 -4 -2 -14 4 -21 13 -13 17 -92 73 -103 73 -3 0 -29 17 -58 38 -29 21
-103 74 -164 117 -62 43 -110 82 -106 88 3 6 1 7 -5 3 -9 -6 -188 107 -212
134 -6 6 -36 27 -166 116 -54 37 -100 72 -102 76 -2 4 -10 8 -18 8 -8 0 -14 3
-14 8 0 4 -23 20 -50 37 -48 28 -61 44 -40 46 12 2 27 5 38 9 4 2 12 4 17 5 6
1 24 8 40 15 17 7 33 14 37 14 3 1 9 4 13 8 4 4 13 4 21 1 8 -3 14 1 14 8 0 7
3 9 7 6 3 -4 12 -2 20 4 7 6 13 9 13 5 0 -4 14 1 30 9 17 9 35 13 40 10 6 -3
10 -1 10 5 0 7 7 10 15 7 8 -4 17 -2 20 4 4 5 10 7 15 4 4 -3 13 2 19 9 7 8
23 13 36 11 14 -1 25 1 25 4 0 8 144 56 146 50 0 -2 8 2 17 9 9 8 21 11 27 7
5 -3 10 -1 10 5 0 6 4 9 9 5 5 -3 12 -1 16 5 4 6 11 8 16 5 5 -4 9 -1 9 6 0 7
3 9 7 6 3 -4 17 0 31 9 13 9 21 11 18 5 -4 -6 -2 -11 3 -11 6 0 11 5 11 11 0
5 4 8 9 4 5 -3 16 1 23 9 17 17 118 47 131 39 6 -3 7 -1 3 5 -5 8 0 12 13 12
12 0 21 5 21 11 0 5 4 7 10 4 5 -3 19 -1 30 5 22 12 44 18 93 27 15 3 27 9 27
14 0 5 3 8 8 7 6 -1 41 8 102 27 3 1 12 5 20 8 50 22 150 54 154 50 2 -3 15 2
27 11 17 12 26 13 36 4 11 -9 13 -8 11 1 -3 11 44 34 92 46 8 2 16 4 18 4 1 1
4 1 7 1 2 1 20 7 40 16 19 8 38 15 42 15 5 1 18 5 31 10 13 5 29 9 37 9 8 0
17 5 21 11 4 8 9 7 15 -2 5 -9 9 -10 9 -3 0 10 11 15 63 29 4 2 10 4 15 5 4 1
10 2 15 1 4 0 7 3 7 7 0 5 6 9 13 10 39 5 78 15 82 22 3 5 13 7 23 6 12 -2 17
-12 17 -37z m-1877 -881 c2 -4 8 -8 13 -8 6 0 15 -5 22 -10 35 -29 201 -141
246 -165 28 -16 51 -32 51 -37 0 -4 5 -8 12 -8 6 0 21 -8 32 -18 12 -11 64
-48 116 -84 52 -35 157 -108 232 -161 76 -53 142 -97 147 -97 5 0 11 -4 13 -8
5 -12 313 -229 368 -259 47 -25 91 -54 114 -75 11 -10 28 -21 39 -24 17 -5 19
-12 13 -52 -5 -40 -15 -77 -34 -132 -3 -8 -6 -23 -7 -32 -2 -10 -4 -19 -5 -20
-1 -2 -4 -12 -5 -23 -2 -19 -25 -127 -31 -150 -11 -38 -25 -93 -29 -110 -2
-11 -6 -31 -9 -45 -4 -14 -9 -38 -12 -55 -7 -38 -8 -41 -22 -90 -6 -22 -13
-51 -16 -65 -3 -14 -12 -51 -20 -83 -9 -32 -16 -68 -16 -81 0 -12 -3 -26 -7
-30 -4 -3 -8 -12 -9 -19 -2 -13 -50 -215 -61 -257 -4 -14 -8 -32 -9 -40 -4
-32 -47 -196 -56 -213 -5 -10 -6 -22 -2 -28 3 -5 1 -15 -4 -22 -5 -7 -13 -30
-17 -52 -5 -22 -9 -44 -11 -50 -2 -5 -5 -19 -7 -30 -3 -11 -13 -51 -22 -90 -9
-38 -19 -81 -21 -95 -3 -14 -8 -34 -11 -45 -4 -11 -8 -27 -9 -35 -10 -58 -17
-86 -23 -90 -4 -3 -8 -14 -8 -25 -1 -11 -4 -31 -8 -45 -4 -14 -9 -36 -12 -50
-2 -14 -7 -32 -10 -40 -4 -8 -5 -21 -4 -28 1 -8 -3 -19 -9 -27 -6 -7 -10 -17
-9 -21 1 -5 -1 -20 -4 -34 -4 -14 -14 -56 -22 -95 -9 -38 -19 -77 -23 -85 -3
-8 -6 -22 -7 -30 0 -8 -7 -41 -14 -72 -7 -32 -12 -61 -13 -65 0 -5 -4 -14 -10
-20 -6 -7 -8 -19 -5 -28 4 -8 1 -20 -6 -27 -7 -7 -13 -22 -14 -33 -4 -37 -11
-70 -27 -125 -8 -30 -17 -66 -20 -80 -8 -39 -68 -283 -74 -300 -3 -8 -4 -21
-3 -28 1 -8 -2 -19 -7 -25 -5 -7 -13 -32 -17 -57 -4 -25 -10 -49 -14 -55 -3
-5 -6 -17 -6 -25 0 -8 -6 -25 -13 -37 -8 -15 -9 -23 -2 -23 6 0 7 -6 1 -17
-16 -34 -32 -93 -27 -102 3 -5 -1 -11 -9 -15 -8 -3 -15 0 -16 7 0 7 -3 26 -5
42 -3 17 -5 37 -6 45 0 8 -5 35 -10 60 -5 25 -13 72 -18 105 -5 33 -11 76 -14
95 -4 19 -11 67 -17 105 -6 39 -13 79 -16 90 -2 11 -5 40 -8 65 -2 25 -8 74
-14 110 -21 130 -23 146 -26 176 -2 17 -6 51 -10 75 -5 24 -9 53 -11 64 -2 11
-5 31 -9 45 -3 14 -8 41 -11 60 -2 19 -7 46 -9 60 -10 57 -24 156 -30 210 -1
14 -6 33 -10 42 -4 10 -5 25 -2 33 4 8 3 16 -1 19 -5 3 -9 23 -10 46 -2 22 -7
52 -13 66 -5 14 -7 29 -5 32 2 4 -2 43 -10 87 -8 44 -17 103 -20 130 -3 28
-12 93 -20 145 -8 52 -16 109 -18 125 -3 17 -7 46 -11 65 -9 53 -15 91 -19
137 -3 24 -7 46 -9 51 -3 4 -8 34 -11 67 -4 33 -11 83 -16 110 -6 28 -12 66
-15 85 -2 19 -7 46 -10 60 -3 14 -7 49 -10 79 -3 30 -7 62 -9 70 -3 9 -8 34
-11 56 -4 22 -11 65 -16 95 -10 65 -17 110 -24 165 -3 22 -7 51 -10 65 -3 14
-7 43 -10 65 -2 22 -7 54 -10 70 -14 80 -25 155 -29 200 -3 28 -9 75 -15 105
-18 94 -22 124 -27 169 -4 49 -12 104 -19 141 -3 14 -8 45 -10 70 -3 25 -8 56
-11 70 -3 14 -7 41 -9 60 -4 39 -11 88 -26 174 -6 32 -10 77 -11 100 0 22 -4
46 -9 52 -5 6 -9 22 -9 35 0 35 -6 82 -13 99 -5 12 -4 55 2 68 2 5 166 -111
169 -120z m3770 -268 c12 -11 25 -20 31 -20 5 0 11 -3 13 -7 2 -5 30 -26 63
-49 33 -22 120 -83 193 -135 73 -52 141 -98 150 -104 9 -5 55 -37 102 -70 47
-33 105 -74 130 -90 25 -16 47 -32 50 -36 3 -3 41 -30 85 -60 44 -30 82 -56
85 -59 9 -10 60 -40 67 -41 5 0 12 -7 16 -15 4 -8 14 -14 21 -14 7 0 21 -9 31
-20 10 -11 20 -18 23 -15 4 4 75 -46 92 -65 3 -3 17 -11 33 -17 15 -7 27 -19
27 -28 0 -8 8 -15 18 -15 9 0 30 -14 46 -30 16 -17 33 -30 38 -30 8 0 37 -22
69 -52 9 -9 19 -15 21 -12 2 2 19 -10 36 -26 18 -16 32 -26 32 -22 0 4 4 2 8
-3 4 -6 20 -19 35 -28 27 -17 34 -55 10 -50 -6 1 -21 -9 -33 -22 -13 -14 -29
-25 -36 -25 -6 0 -14 -7 -18 -15 -3 -8 -11 -15 -19 -15 -7 0 -31 -16 -53 -35
-21 -19 -42 -35 -46 -35 -5 0 -17 -8 -27 -17 -29 -26 -43 -36 -72 -51 -15 -8
-39 -26 -55 -40 -35 -33 -90 -63 -98 -55 -3 4 -6 -1 -6 -11 0 -9 -11 -22 -25
-28 -14 -6 -25 -15 -25 -19 0 -4 -9 -11 -21 -14 -12 -4 -30 -14 -41 -24 -11
-9 -31 -26 -45 -38 -14 -12 -38 -27 -52 -35 -14 -7 -28 -15 -31 -18 -14 -14
-90 -70 -94 -70 -3 0 -15 -8 -25 -17 -31 -28 -44 -38 -92 -69 -24 -16 -50 -35
-57 -42 -8 -7 -19 -9 -25 -5 -7 3 -9 3 -5 -2 7 -7 -32 -44 -49 -47 -4 -1 -13
-6 -19 -12 -6 -6 -23 -20 -39 -31 -15 -11 -36 -28 -47 -37 -10 -10 -23 -19
-30 -20 -7 -2 -21 -12 -31 -23 -10 -11 -15 -14 -11 -6 6 11 -21 -8 -122 -89
-7 -5 -15 -6 -18 -3 -3 4 -6 1 -6 -5 0 -7 -7 -12 -15 -12 -8 0 -15 -7 -15 -15
0 -20 -20 -19 -35 2 -12 16 -13 15 -8 -7 3 -17 -2 -31 -15 -43 -19 -17 -20
-17 -37 19 -9 20 -15 49 -13 65 3 16 1 29 -3 29 -5 0 -8 21 -8 48 1 54 -9 323
-15 395 -2 27 1 47 6 47 7 0 6 5 0 13 -7 8 -7 18 -2 27 5 8 6 19 2 25 -3 5 -8
138 -9 295 -3 368 -8 559 -16 567 -4 3 -4 11 0 16 4 6 6 36 5 66 -8 432 -9
571 -3 571 4 0 17 -9 29 -20z m-134 -69 c-1 -39 2 -71 7 -71 4 0 4 -12 0 -27
-4 -16 -6 -59 -4 -98 5 -91 5 -86 4 -115 -1 -14 0 -45 3 -70 2 -25 -1 -51 -6
-57 -6 -7 -6 -13 -1 -13 5 0 9 -77 10 -172 2 -241 11 -487 18 -498 3 -5 1 -12
-5 -15 -6 -4 -7 -12 -3 -18 4 -7 8 -96 8 -199 0 -104 2 -188 5 -188 5 0 5 -22
-5 -325 -7 -207 -7 -205 -20 -197 -44 27 -412 288 -417 296 -4 6 -8 7 -8 2 0
-5 -10 0 -22 11 -13 11 -52 40 -88 64 -36 24 -67 47 -70 50 -6 6 -212 149
-238 164 -9 6 -19 13 -22 16 -12 14 -100 69 -109 69 -6 0 -11 4 -11 8 0 5 -18
18 -40 31 -22 12 -40 26 -40 32 0 5 -3 8 -7 7 -13 -3 -81 42 -87 58 -3 9 -11
14 -18 12 -12 -4 -32 9 -70 45 -10 9 -18 14 -18 10 0 -3 -10 3 -22 14 -13 11
-40 30 -60 42 -21 13 -38 27 -38 32 0 6 -4 8 -9 5 -5 -3 -20 5 -32 19 -13 13
-29 25 -36 25 -6 0 -13 3 -15 8 -1 4 -42 33 -89 64 -47 30 -92 62 -100 69 -8
8 -26 20 -41 28 -16 8 -28 18 -28 23 0 4 -4 8 -10 8 -8 0 -150 99 -187 130 -7
5 -15 10 -18 10 -13 0 -75 53 -75 64 0 6 7 3 14 -7 15 -19 33 -6 20 15 -4 6
-3 8 4 4 6 -3 13 -2 17 4 4 6 11 8 16 4 5 -3 16 -1 24 6 7 6 29 12 48 13 19 1
33 5 31 8 -3 6 14 17 36 24 25 8 67 32 73 42 5 8 12 11 18 8 5 -4 9 -3 9 2 0
4 13 9 29 10 15 1 54 13 85 27 32 14 60 25 64 24 4 -1 17 4 30 11 13 7 30 10
38 7 9 -3 12 -1 9 4 -3 6 3 10 14 10 11 0 23 5 26 10 4 6 10 8 15 5 5 -3 11
-1 15 5 4 6 11 8 16 5 5 -4 9 -2 9 4 0 6 6 8 14 5 8 -3 17 -1 21 5 3 6 16 11
28 11 13 0 32 7 43 15 12 8 24 12 27 8 4 -3 17 1 29 9 13 8 26 16 31 16 4 1
23 8 42 16 20 9 37 15 40 16 10 1 41 12 60 21 46 21 108 38 116 33 5 -3 9 -1
9 4 0 6 12 13 28 17 15 3 41 13 57 20 32 15 229 84 256 90 8 2 33 11 55 20 21
9 50 19 64 21 13 3 27 10 31 15 3 5 20 11 37 12 18 1 32 6 32 10 0 5 4 5 10 2
5 -3 19 3 31 14 17 15 26 18 40 10 13 -7 19 -6 19 1 0 6 4 9 9 6 5 -4 11 -1
13 4 2 6 19 13 38 16 19 4 38 11 41 16 4 6 11 8 17 4 6 -3 13 -2 17 4 4 6 11
7 17 4 6 -4 14 -1 18 5 4 7 17 13 28 14 12 1 22 5 22 10 0 4 3 6 8 4 4 -3 6
-37 6 -76z m-2079 -723 c26 -21 265 -189 292 -205 17 -10 76 -51 131 -90 56
-40 105 -73 109 -73 5 0 15 -9 23 -20 8 -11 20 -20 26 -20 7 0 26 -11 42 -25
16 -13 32 -22 36 -18 3 3 6 1 6 -5 0 -6 15 -19 33 -28 17 -9 34 -20 37 -24 3
-4 26 -19 51 -33 25 -15 56 -38 69 -52 13 -14 29 -25 37 -25 7 0 21 -9 30 -20
10 -11 21 -20 26 -20 8 0 28 -15 84 -60 7 -6 17 -10 23 -10 5 0 10 -4 10 -10
0 -5 7 -10 15 -10 8 0 19 -9 25 -20 6 -11 19 -20 30 -20 10 0 20 -4 22 -8 2
-5 37 -32 79 -60 42 -28 84 -58 93 -67 9 -9 16 -13 16 -8 0 4 4 3 8 -3 4 -5
28 -24 54 -41 103 -69 283 -198 286 -205 2 -4 10 -8 17 -8 7 0 15 -3 17 -7 4
-11 94 -73 105 -73 5 0 16 -8 24 -17 9 -10 24 -24 35 -31 195 -130 224 -153
211 -173 -16 -25 -27 -24 -27 4 0 16 -3 18 -9 8 -5 -7 -6 -22 -3 -34 3 -14 1
-18 -6 -13 -7 4 -12 3 -12 -2 0 -6 -11 -13 -24 -16 -13 -3 -26 -15 -29 -27 -3
-12 -10 -18 -15 -15 -5 3 -17 -3 -27 -15 -10 -11 -49 -40 -87 -65 -37 -24 -68
-49 -68 -55 0 -6 -4 -8 -9 -4 -5 3 -27 -11 -48 -30 -21 -19 -42 -35 -46 -35
-9 0 -48 -28 -94 -67 -14 -13 -29 -20 -34 -17 -5 3 -9 -2 -9 -10 0 -9 -5 -16
-10 -16 -13 0 -91 -55 -129 -90 -14 -13 -27 -22 -28 -20 -1 3 -13 -5 -27 -17
-15 -13 -28 -23 -31 -23 -7 0 -105 -70 -132 -94 -13 -11 -23 -17 -23 -13 0 3
-13 -6 -29 -21 -16 -15 -48 -38 -71 -52 -24 -14 -48 -29 -54 -35 -19 -17 -75
-55 -80 -55 -3 0 -16 -10 -30 -22 -36 -34 -54 -48 -62 -48 -3 0 -16 -8 -29
-17 -12 -10 -33 -25 -45 -33 -13 -8 -35 -25 -50 -37 -15 -13 -33 -23 -40 -23
-6 0 -9 -4 -6 -9 3 -5 -8 -14 -24 -20 -17 -5 -30 -14 -30 -19 0 -5 -13 -15
-30 -22 -16 -7 -30 -16 -30 -21 0 -5 -6 -9 -14 -9 -8 0 -17 -7 -20 -16 -3 -8
-10 -13 -15 -10 -5 4 -11 3 -13 -2 -5 -12 -85 -72 -97 -72 -6 0 -11 -5 -11
-11 0 -5 -5 -7 -10 -4 -6 3 -13 0 -16 -8 -3 -9 -16 -18 -30 -21 -13 -4 -24
-13 -24 -22 0 -8 -4 -13 -9 -9 -5 3 -12 1 -16 -4 -7 -13 -94 -71 -105 -71 -4
0 -10 -3 -12 -8 -3 -8 -105 -82 -113 -82 -10 0 -70 -44 -78 -57 -4 -7 -14 -13
-22 -13 -8 0 -18 -6 -22 -13 -4 -7 -31 -28 -60 -47 -28 -19 -49 -39 -45 -44 3
-5 0 -6 -6 -2 -6 3 -23 -5 -39 -19 -44 -39 -48 -42 -81 -59 -18 -9 -32 -21
-32 -26 0 -6 -7 -10 -15 -10 -7 0 -18 -6 -22 -13 -4 -7 -26 -24 -48 -37 -22
-13 -42 -27 -45 -31 -3 -3 -30 -23 -61 -42 -31 -20 -63 -42 -70 -49 -30 -29
-89 -70 -89 -62 -1 5 -8 0 -18 -11 -9 -12 -24 -24 -32 -28 -19 -8 -53 -30 -60
-37 -14 -16 -133 -100 -140 -100 -5 0 -5 14 0 30 5 17 6 30 3 30 -3 0 0 6 6
13 6 8 12 22 14 33 2 10 7 27 12 37 4 10 5 20 2 23 -3 3 1 21 9 40 8 19 12 34
9 34 -4 0 -3 6 2 13 4 6 8 14 8 17 2 8 19 94 21 103 1 4 3 8 4 10 1 1 4 11 6
22 4 23 12 58 15 65 1 3 3 10 4 15 1 6 7 30 14 55 7 25 15 53 17 63 2 10 6 28
10 40 4 12 9 31 10 42 2 11 8 38 14 60 24 87 28 105 22 105 -3 0 3 7 14 16 10
8 13 13 7 9 -13 -6 -18 7 -7 18 4 4 8 19 10 34 4 31 7 49 17 78 3 11 8 31 11
45 6 31 11 53 26 110 6 25 16 65 21 90 6 25 13 52 16 60 7 19 15 59 17 88 0
12 4 22 9 22 4 0 7 14 7 30 0 17 4 30 9 30 6 0 8 9 6 20 -2 11 0 22 6 25 5 4
9 19 9 35 0 16 5 32 10 35 6 4 8 9 6 13 -2 4 5 41 16 82 21 80 24 95 33 150 3
19 11 48 17 63 6 15 8 30 4 34 -3 3 -2 11 3 17 9 11 42 131 39 144 -1 4 1 14
5 22 5 13 9 30 24 90 2 8 5 24 7 35 2 11 9 40 16 65 7 25 14 50 16 55 1 6 9
42 18 80 16 67 24 102 31 135 2 8 11 42 20 75 9 33 17 70 18 83 1 12 4 22 8
22 3 0 9 17 12 38 7 40 14 76 17 80 4 4 15 53 25 107 2 11 4 20 5 20 2 0 10
32 14 55 2 8 9 35 16 60 7 25 14 52 15 60 2 8 4 15 5 15 2 0 3 5 14 60 22 108
36 159 48 166 8 6 9 9 2 9 -8 0 -8 11 2 39 16 46 27 96 28 129 1 12 4 22 9 22
4 0 7 9 7 21 0 20 8 19 35 -3z m3843 -475 c0 -32 2 -79 4 -105 2 -27 0 -48 -5
-48 -4 0 -5 -5 -1 -12 4 -7 9 -62 10 -123 3 -125 13 -380 14 -380 3 0 11 -293
13 -452 1 -95 4 -173 7 -173 3 0 6 -62 8 -138 6 -320 12 -522 16 -570 2 -29 1
-54 -4 -57 -5 -3 -7 -12 -3 -20 3 -8 2 -15 -1 -15 -11 0 -61 34 -69 47 -4 7
-14 10 -22 7 -10 -4 -15 0 -16 12 0 13 -2 14 -6 5 -3 -7 -8 -9 -12 -4 -3 5
-42 34 -86 64 -44 31 -133 92 -197 137 -65 45 -123 82 -128 82 -6 0 -13 7 -16
15 -4 8 -13 15 -21 15 -8 0 -42 20 -74 45 -33 25 -62 45 -65 45 -2 0 -10 5
-17 10 -13 12 -273 195 -312 220 -67 44 -150 104 -153 112 -2 4 -8 8 -13 8 -7
0 -82 49 -124 83 -5 4 -59 41 -120 83 -145 100 -145 100 -118 119 12 9 28 22
36 30 11 11 17 11 27 2 8 -8 11 -8 7 -1 -4 6 5 20 19 30 15 11 38 29 53 41 14
13 32 28 39 34 7 6 15 9 18 6 3 -2 19 9 35 24 17 16 46 36 65 45 19 9 34 23
34 31 0 8 4 12 9 9 4 -3 19 3 31 14 13 11 29 20 37 20 7 0 13 4 13 9 0 5 23
24 50 42 28 18 50 39 50 46 0 8 4 12 9 8 5 -3 12 -1 16 5 4 6 10 8 14 6 4 -3
14 4 21 15 8 10 20 19 27 19 7 0 13 3 13 8 0 4 23 20 50 35 28 16 50 32 50 36
0 4 16 13 35 21 19 8 42 24 50 37 9 13 24 23 35 23 11 0 20 6 20 14 0 8 10 18
22 22 12 3 31 15 42 26 12 11 33 25 48 30 15 5 30 18 33 29 4 11 10 17 15 14
5 -3 11 -1 15 5 4 6 11 7 17 4 6 -4 9 -3 6 2 -3 5 0 15 8 22 11 10 14 10 14 0
0 -7 7 -3 15 9 8 11 33 30 56 42 23 12 58 37 78 56 20 19 42 35 49 35 6 0 12
3 12 8 0 6 57 45 70 46 3 1 22 15 42 31 21 17 42 31 48 31 5 1 17 2 26 3 8 0
12 6 9 11 -3 6 0 10 8 10 10 0 14 -15 15 -57z m-1557 -1115 c34 -24 76 -51 93
-62 17 -10 33 -21 36 -25 10 -14 126 -91 137 -91 7 0 19 -10 27 -22 9 -12 16
-19 16 -15 0 4 10 -1 22 -13 12 -11 26 -20 31 -20 6 0 25 -11 44 -26 18 -14
33 -22 33 -19 0 3 11 -5 24 -19 13 -15 27 -26 31 -26 7 0 222 -150 255 -178 8
-7 53 -38 100 -68 47 -31 87 -60 88 -65 2 -5 8 -9 13 -9 7 0 147 -95 194 -133
9 -7 246 -171 289 -199 10 -7 24 -19 32 -25 7 -7 17 -13 23 -13 6 0 11 -6 11
-14 0 -11 -67 -32 -135 -42 -5 0 -17 -3 -25 -7 -8 -3 -35 -8 -60 -12 -24 -3
-50 -11 -57 -17 -7 -5 -19 -8 -28 -5 -8 4 -17 2 -20 -3 -3 -5 -12 -7 -20 -3
-8 3 -23 2 -32 -3 -23 -10 -41 -14 -78 -17 -16 -1 -36 -7 -42 -14 -7 -6 -26
-10 -43 -9 -16 1 -30 -2 -30 -7 0 -5 -6 -7 -12 -4 -7 2 -35 -3 -63 -11 -27 -8
-61 -16 -75 -17 -26 -3 -42 -7 -99 -24 -19 -6 -37 -8 -42 -6 -4 3 -10 1 -14
-5 -4 -6 -10 -8 -15 -5 -5 3 -18 1 -29 -4 -11 -6 -37 -14 -58 -17 -21 -3 -42
-7 -48 -8 -5 -1 -16 -5 -22 -9 -7 -5 -17 -5 -23 -2 -5 3 -10 2 -10 -3 0 -4
-12 -9 -27 -9 -30 -1 -58 -7 -107 -22 -17 -5 -38 -9 -46 -10 -8 0 -37 -5 -65
-11 -27 -6 -61 -13 -75 -15 -14 -2 -26 -4 -27 -4 -2 -1 -5 -1 -8 -1 -3 -1 -23
-7 -46 -16 -23 -8 -44 -12 -47 -10 -2 3 -16 0 -31 -6 -31 -12 -54 -17 -101
-24 -19 -3 -53 -10 -75 -16 -22 -6 -56 -13 -75 -15 -19 -3 -39 -9 -45 -13 -8
-6 -56 -16 -120 -25 -5 -1 -17 -5 -26 -9 -9 -4 -29 -9 -45 -11 -16 -2 -29 -4
-29 -5 0 -2 -46 -9 -77 -11 -15 -1 -25 -5 -23 -9 2 -4 -8 -8 -23 -8 -26 -1
-44 -5 -94 -18 -13 -3 -35 -6 -50 -7 -16 0 -28 -5 -28 -10 0 -5 -7 -7 -15 -3
-8 3 -15 1 -15 -3 0 -5 -9 -7 -20 -4 -12 3 -20 0 -20 -6 0 -7 -4 -9 -10 -6 -5
3 -29 1 -52 -6 -41 -10 -88 -19 -115 -21 -7 -1 -13 -5 -13 -9 0 -5 -7 -6 -15
-3 -8 4 -15 2 -15 -3 0 -5 -18 -9 -41 -8 -22 1 -52 -4 -66 -12 -14 -7 -29 -10
-34 -7 -5 3 -9 0 -9 -6 0 -6 -8 -10 -17 -9 -10 2 -28 -1 -41 -5 -12 -4 -35 -9
-50 -12 -32 -5 -66 -12 -69 -14 -2 -2 -12 -3 -22 -4 -11 0 -22 -4 -26 -8 -4
-4 -13 -4 -20 -2 -7 3 -16 0 -20 -5 -3 -6 -10 -9 -14 -7 -4 3 -23 1 -42 -4
-58 -16 -93 -22 -116 -22 -13 0 -23 -4 -23 -10 0 -5 -4 -6 -10 -3 -5 3 -16 3
-22 -2 -15 -9 -30 -12 -73 -17 -16 -2 -38 -7 -47 -11 -10 -4 -24 -5 -32 -2 -8
3 -16 2 -18 -3 -3 -9 -37 -18 -88 -25 -14 -2 -26 -3 -27 -4 -2 -1 -5 -1 -8 -2
-2 0 -19 -5 -37 -11 -18 -5 -42 -11 -53 -13 -41 -7 -72 -13 -133 -29 -34 -9
-67 -14 -72 -11 -5 3 -12 0 -17 -7 -4 -7 -26 -14 -48 -14 -22 -1 -50 -4 -62
-8 -45 -12 -108 -25 -155 -31 -15 -2 -37 -9 -48 -15 -11 -6 -25 -8 -30 -5 -6
3 -10 2 -10 -4 0 -6 -7 -8 -16 -4 -9 3 -20 0 -25 -8 -6 -10 -9 -10 -9 -2 0 9
-7 10 -27 2 -15 -6 -59 -17 -98 -25 -38 -8 -79 -17 -90 -20 -17 -4 -16 -2 5
15 14 12 32 27 40 34 22 19 74 51 83 52 4 0 11 5 15 11 4 5 36 30 72 55 36 24
71 50 78 57 7 6 18 12 24 12 6 0 17 8 24 18 7 9 16 17 21 17 8 0 25 13 64 48
10 9 19 14 19 10 0 -4 14 6 30 22 17 16 30 25 30 19 0 -5 7 0 15 10 8 11 15
17 15 13 0 -3 12 5 26 18 15 14 33 25 40 25 7 0 19 8 26 18 13 17 48 40 106
69 17 9 32 23 32 30 0 7 6 13 14 13 8 0 21 6 28 13 7 7 42 33 78 56 36 24 75
53 88 64 12 11 22 17 22 12 0 -4 9 2 19 14 11 13 26 23 33 25 8 1 21 7 29 14
8 7 64 49 124 92 157 114 157 114 171 128 7 7 16 12 19 12 9 -1 60 34 68 47 5
8 12 11 18 8 5 -4 9 -1 9 6 0 7 3 9 7 6 3 -4 12 2 20 13 8 11 21 20 29 20 8 0
14 5 14 10 0 6 11 15 25 20 14 5 25 14 25 19 0 5 10 13 23 17 12 4 29 14 37
23 19 20 49 40 73 47 9 4 17 10 17 13 0 9 78 61 90 61 4 0 10 7 14 15 3 8 12
15 21 15 8 0 15 5 15 10 0 6 6 10 13 10 8 0 24 11 37 25 13 14 25 23 28 21 2
-2 13 5 24 16 11 11 26 17 34 14 9 -4 14 1 14 15 0 11 4 18 9 15 4 -3 19 6 31
19 13 14 28 25 34 25 6 0 24 14 39 30 16 17 34 30 40 31 7 0 32 16 57 35 25
19 57 40 73 47 15 6 27 17 27 25 0 7 5 10 11 7 6 -4 13 3 16 14 5 20 6 20 18
4 11 -15 13 -15 19 5 4 13 20 30 34 39 15 10 51 35 80 56 30 22 58 35 65 31 6
-4 9 -4 5 0 -7 8 26 46 40 46 4 0 19 11 34 24 14 14 29 22 32 19 3 -4 6 -2 6
4 0 5 16 18 35 29 19 10 35 22 35 26 0 5 5 8 11 8 6 0 20 10 31 23 11 12 17
16 13 10 -4 -9 -1 -11 9 -7 9 3 16 12 16 20 0 8 5 14 11 14 6 0 24 11 41 25
16 14 33 25 38 25 5 0 37 -19 71 -42z"/>
<path d="M10183 9493 c-56 -60 -617 -633 -848 -868 -71 -73 -129 -137 -129
-144 1 -6 2 -17 3 -24 1 -13 11 -17 49 -18 45 -2 68 9 107 51 127 135 289 301
535 550 408 413 424 430 427 452 5 30 -25 58 -59 58 -23 0 -42 -13 -85 -57z"/>
<path d="M11323 8625 c-31 -13 -44 -22 -81 -55 -10 -8 -38 -28 -62 -44 -25
-16 -49 -35 -53 -43 -4 -7 -13 -13 -19 -13 -6 0 -18 -7 -27 -15 -16 -15 -187
-140 -219 -160 -9 -5 -38 -27 -65 -47 -27 -21 -52 -38 -57 -38 -4 0 -23 -13
-41 -30 -19 -16 -37 -30 -41 -30 -4 0 -13 -6 -20 -12 -7 -7 -32 -26 -55 -42
-24 -16 -43 -33 -43 -38 0 -5 -4 -7 -10 -3 -5 3 -18 -3 -30 -15 -11 -11 -24
-20 -30 -20 -5 0 -10 -5 -10 -11 0 -5 -4 -7 -10 -4 -5 3 -10 2 -10 -3 0 -5
-46 -40 -102 -77 -57 -38 -106 -73 -109 -78 -3 -5 -9 -8 -13 -8 -3 1 -12 -3
-19 -9 -51 -44 -73 -60 -79 -60 -16 0 -7 -48 11 -64 20 -18 53 -27 61 -17 7 8
145 111 205 152 27 19 60 44 74 56 13 11 35 27 50 35 14 7 31 18 37 23 6 6 27
21 47 35 20 14 37 28 37 33 0 4 7 7 15 7 8 0 15 4 15 8 0 5 17 18 38 30 22 12
66 43 99 69 33 27 71 55 83 63 13 8 32 23 42 33 10 9 21 17 26 17 4 0 15 7 25
15 9 8 20 15 23 15 3 0 12 7 21 15 8 9 47 37 85 63 105 70 120 80 151 97 15 9
27 20 27 25 0 6 5 10 10 10 6 0 18 6 27 13 73 58 88 90 57 121 -18 19 -20 19
-61 1z"/>
<path d="M11762 7109 c-21 -15 -50 -31 -65 -34 -15 -4 -27 -11 -27 -16 0 -5
-7 -9 -15 -9 -8 0 -41 -13 -73 -30 -33 -16 -74 -33 -91 -36 -17 -4 -31 -10
-31 -15 0 -5 -7 -9 -15 -9 -8 0 -15 -4 -15 -10 0 -5 -12 -13 -27 -16 -16 -4
-46 -17 -68 -30 -22 -13 -42 -23 -45 -23 -3 1 -50 -20 -105 -46 -91 -43 -142
-65 -155 -70 -3 -1 -41 -19 -85 -40 -44 -22 -85 -39 -91 -40 -6 0 -21 -8 -35
-16 -13 -9 -28 -18 -34 -19 -5 -2 -56 -25 -112 -51 -57 -26 -103 -45 -103 -41
0 4 -4 1 -9 -6 -4 -7 -14 -14 -22 -16 -8 -1 -48 -18 -89 -38 -75 -36 -102 -48
-194 -87 -35 -16 -47 -25 -42 -37 3 -9 6 -22 6 -29 0 -13 55 -32 75 -25 6 1
18 2 27 2 10 0 20 4 23 9 4 5 11 7 16 4 5 -4 9 -1 9 4 0 6 4 11 9 11 6 0 45
16 88 36 43 20 89 41 103 47 14 6 33 18 43 26 9 8 17 11 17 7 0 -3 19 3 43 15
23 12 42 21 42 19 0 -2 20 8 45 21 25 13 47 24 50 25 28 9 70 30 70 35 0 4 8
6 18 5 9 -2 28 5 41 15 13 11 30 19 37 19 7 0 29 9 48 21 20 12 36 18 36 13 0
-4 8 0 18 9 9 8 29 19 45 22 15 4 27 11 27 16 0 5 8 9 18 9 10 0 23 5 30 12 7
7 12 8 12 3 0 -6 4 -6 8 0 7 11 169 85 187 86 6 0 17 6 25 14 13 11 44 24 73
31 4 1 9 3 12 4 3 1 8 3 13 4 4 1 37 16 73 34 37 18 72 32 79 32 6 0 32 12 56
26 25 15 63 30 86 36 23 5 48 18 56 29 7 10 17 17 22 14 15 -9 19 23 4 35 -8
7 -14 21 -14 31 0 44 -73 49 -128 8z"/>
<path d="M9230 4740 c0 -5 5 -10 10 -10 6 0 10 5 10 10 0 6 -4 10 -10 10 -5 0
-10 -4 -10 -10z"/>
</g>
</svg>
